0
SECTION
2
HEADER
9
$INSUNITS
70
1
9
$ACADVER
1
AC1014
9
$HANDSEED
5
FFFF
0
ENDSEC
0
SECTION
2
TABLES
0
TABLE
2
VPORT
5
8
100
AcDbSymbolTable
0
ENDTAB
0
TABLE
2
LTYPE
5
5
100
AcDbSymbolTable
0
LTYPE
5
14
100
AcDbSymbolTableRecord
100
AcDbLinetypeTableRecord
2
BYBLOCK
70
0
0
LTYPE
5
15
100
AcDbSymbolTableRecord
100
AcDbLinetypeTableRecord
2
BYLAYER
70
0
0
ENDTAB
0
TABLE
2
LAYER
5
2
100
AcDbSymbolTable
70
2
0
LAYER
5
50
100
AcDbSymbolTableRecord
100
AcDbLayerTableRecord
2
0
70
0
6
CONTINUOUS
0
ENDTAB
0
TABLE
2
STYLE
5
3
100
AcDbSymbolTable
70
1
0
STYLE
5
11
100
AcDbSymbolTableRecord
100
AcDbTextStyleTableRecord
2
STANDARD
70
0
0
ENDTAB
0
TABLE
2
VIEW
5
6
100
AcDbSymbolTable
70
0
0
ENDTAB
0
TABLE
2
UCS
5
7
100
AcDbSymbolTable
70
0
0
ENDTAB
0
TABLE
2
APPID
5
9
100
AcDbSymbolTable
70
2
0
APPID
5
12
100
AcDbSymbolTableRecord
100
AcDbRegAppTableRecord
2
ACAD
70
0
0
ENDTAB
0
TABLE
2
DIMSTYLE
5
A
100
AcDbSymbolTable
70
1
0
ENDTAB
0
TABLE
2
BLOCK_RECORD
5
1
100
AcDbSymbolTable
70
1
0
BLOCK_RECORD
5
1F
100
AcDbSymbolTableRecord
100
AcDbBlockTableRecord
2
*MODEL_SPACE
0
BLOCK_RECORD
5
1B
100
AcDbSymbolTableRecord
100
AcDbBlockTableRecord
2
*PAPER_SPACE
0
ENDTAB
0
ENDSEC
0
SECTION
2
BLOCKS
0
BLOCK
5
20
100
AcDbEntity
100
AcDbBlockBegin
2
*MODEL_SPACE
0
ENDBLK
5
21
100
AcDbEntity
100
AcDbBlockEnd
0
BLOCK
5
1C
100
AcDbEntity
100
AcDbBlockBegin
2
*PAPER_SPACE
0
ENDBLK
5
1D
100
AcDbEntity
100
AcDbBlockEnd
0
ENDSEC
0
SECTION
2
ENTITIES
0
LWPOLYLINE
5
100
100
AcDbEntity
8
0
100
AcDbPolyline
90
8
70
1
43
0.0
10
-9.9999999999999947
20
-0.74999999999999867
10
-9.9999999999999947
20
-0.24999999999999994
42
0.41421356237309509
10
-10.249999999999995
20
0
10
-13.749999999999995
20
-4.3709567898628207e-17
42
0.41421356237309509
10
-13.999999999999995
20
-0.24999999999999997
10
-13.999999999999996
20
-0.74999999999999845
42
0.41421356237309515
10
-13.749999999999998
20
-0.99999999999999856
10
-10.249999999999995
20
-0.99999999999999856
42
0.41421356237309509
0
ARC
5
101
100
AcDbEntity
8
0
100
AcDbCircle
10
0.41161163024037806
20
11.088388333046259
30
0
40
0.12499999999999953
210
0
220
0
230
1
100
AcDbArc
50
-134.99997160362236
51
44.999990550025984
0
LINE
5
102
100
AcDbEntity
8
0
100
AcDbLine
10
0.32322332639824503
20
10.999999941591778
30
0
11
0.17677672450074111
21
10.999999893204816
31
0
0
ARC
5
103
100
AcDbEntity
8
0
100
AcDbCircle
10
0.088388333046259232
20
11.08838819704695
30
0
40
0.12499999999999983
210
0
220
0
230
1
100
AcDbArc
50
134.9999905345413
51
315.00002839637756
0
LINE
5
104
100
AcDbEntity
8
0
100
AcDbLine
10
-4.3709567898628207e-17
20
11.176776559297323
30
0
11
0
21
13
31
0
0
LINE
5
105
100
AcDbEntity
8
0
100
AcDbLine
10
0
20
13
30
0
11
-24
21
13
31
0
0
LINE
5
106
100
AcDbEntity
8
0
100
AcDbLine
10
-24
20
13
30
0
11
-24
21
11.180395099186697
31
0
0
ARC
5
107
100
AcDbEntity
8
0
100
AcDbCircle
10
-24.088776165916155
20
11.092396278937633
30
0
40
0.12500000000000086
210
0
220
0
230
1
100
AcDbArc
50
-134.24415201770822
51
44.748050672569669
0
LINE
5
108
100
AcDbEntity
8
0
100
AcDbLine
10
-24.17599083413393
20
11.002849633843226
30
0
11
-24.322454534656526
21
11.001561497698381
31
0
0
ARC
5
109
100
AcDbEntity
8
0
100
AcDbCircle
10
-24.412001179750927
20
11.088776165916157
30
0
40
0.12499999999999986
210
0
220
0
230
1
100
AcDbArc
50
134.74805067257026
51
315.75584798229011
0
LINE
5
110
100
AcDbEntity
8
0
100
AcDbLine
10
-24.499999999999993
20
11.177552331832311
30
0
11
-24.499999999999993
21
12.25
31
0
0
ARC
5
111
100
AcDbEntity
8
0
100
AcDbCircle
10
-24.75
20
12.250000000000002
30
0
40
0.25000000000000477
210
0
220
0
230
1
100
AcDbArc
50
0
51
180
0
LINE
5
112
100
AcDbEntity
8
0
100
AcDbLine
10
-24.999999999999996
20
12.250000000000014
30
0
11
-24.999999999999996
21
10
31
0
0
ARC
5
113
100
AcDbEntity
8
0
100
AcDbCircle
10
-24.499999999999993
20
10.000000000000004
30
0
40
0.50000000000000122
210
0
220
0
230
1
100
AcDbArc
50
180
51
269.9999999999992
0
LINE
5
114
100
AcDbEntity
8
0
100
AcDbLine
10
-24.5
20
9.5
30
0
11
-24.249999999999996
21
9.5
31
0
0
ARC
5
115
100
AcDbEntity
8
0
100
AcDbCircle
10
-24.249999999999996
20
9.2499999999999982
30
0
40
0.2499999999999992
210
0
220
-0
230
1
100
AcDbArc
50
0
51
90
0
LINE
5
116
100
AcDbEntity
8
0
100
AcDbLine
10
-24
20
9.2499999999999982
30
0
11
-24
21
2.176776695296637
31
0
0
ARC
5
117
100
AcDbEntity
8
0
100
AcDbCircle
10
-24.088388347648316
20
2.0883883476483183
30
0
40
0.12499999999999971
210
0
220
0
230
1
100
AcDbArc
50
-135.00000000000043
51
45.000000000001002
0
LINE
5
118
100
AcDbEntity
8
0
100
AcDbLine
10
-24.176776695296635
20
2.0000000000000004
30
0
11
-24.323223304703358
21
2
31
0
0
ARC
5
119
100
AcDbEntity
8
0
100
AcDbCircle
10
-24.411611652351677
20
2.0883883476483183
30
0
40
0.12500000000000019
210
0
220
0
230
1
100
AcDbArc
50
135.00000000000043
51
315.00000000000028
0
LINE
5
120
100
AcDbEntity
8
0
100
AcDbLine
10
-24.499999999999996
20
2.1767766952966361
30
0
11
-24.499999999999996
21
3.25
31
0
0
ARC
5
121
100
AcDbEntity
8
0
100
AcDbCircle
10
-24.75
20
3.2500000000000009
30
0
40
0.250000000000002
210
0
220
0
230
1
100
AcDbArc
50
0
51
180
0
LINE
5
122
100
AcDbEntity
8
0
100
AcDbLine
10
-24.999999999999996
20
3.2500000000000036
30
0
11
-24.999999999999996
21
0.99999999999999989
31
0
0
ARC
5
123
100
AcDbEntity
8
0
100
AcDbCircle
10
-24.499999999999993
20
1.000000000000002
30
0
40
0.500000000000004
210
0
220
0
230
1
100
AcDbArc
50
180
51
270
0
LINE
5
124
100
AcDbEntity
8
0
100
AcDbLine
10
-24.499999999999993
20
0.50000000000000089
30
0
11
-24.249999999999996
21
0.49999999999999994
31
0
0
ARC
5
125
100
AcDbEntity
8
0
100
AcDbCircle
10
-24.249999999999996
20
0.24999999999999997
30
0
40
0.2499999999999992
210
-0
220
0
230
1
100
AcDbArc
50
0
51
90
0
LINE
5
126
100
AcDbEntity
8
0
100
AcDbLine
10
-24
20
0.24999999999999994
30
0
11
-24
21
0
31
0
0
LINE
5
127
100
AcDbEntity
8
0
100
AcDbLine
10
-24
20
0
30
0
11
-14.749999999999996
21
0
31
0
0
ARC
5
128
100
AcDbEntity
8
0
100
AcDbCircle
10
-14.749999999999996
20
-0.25000000000000006
30
0
40
0.2499999999999992
210
0
220
0
230
1
100
AcDbArc
50
0
51
90
0
LINE
5
129
100
AcDbEntity
8
0
100
AcDbLine
10
-14.499999999999998
20
-0.25000000000000006
30
0
11
-14.499999999999998
21
-1.2499999999999998
31
0
0
ARC
5
130
100
AcDbEntity
8
0
100
AcDbCircle
10
-14.250000000000002
20
-1.2500000000000029
30
0
40
0.24999999999999639
210
0
220
0
230
1
100
AcDbArc
50
180
51
270.0000000000008
0
LINE
5
131
100
AcDbEntity
8
0
100
AcDbLine
10
-14.249999999999998
20
-1.4999999999999993
30
0
11
-9.75
21
-1.5
31
0
0
ARC
5
132
100
AcDbEntity
8
0
100
AcDbCircle
10
-9.75
20
-1.2499999999999989
30
0
40
0.25000000000000094
210
0
220
0
230
1
100
AcDbArc
50
270
51
360
0
LINE
5
133
100
AcDbEntity
8
0
100
AcDbLine
10
-9.4999999999999982
20
-1.2499999999999998
30
0
11
-9.4999999999999982
21
-0.25000000000000006
31
0
0
ARC
5
134
100
AcDbEntity
8
0
100
AcDbCircle
10
-9.2499999999999982
20
-0.24999999999999997
30
0
40
0.24999999999999994
210
0
220
-0
230
1
100
AcDbArc
50
90
51
180
0
LINE
5
135
100
AcDbEntity
8
0
100
AcDbLine
10
-9.2499999999999982
20
-4.3709567898628207e-17
30
0
11
0
21
0
31
0
0
LINE
5
136
100
AcDbEntity
8
0
100
AcDbLine
10
0
20
0
30
0
11
0
21
0.2499999999999992
31
0
0
ARC
5
137
100
AcDbEntity
8
0
100
AcDbCircle
10
0.24999999999999997
20
0.24999999999999997
30
0
40
0.24999999999999997
210
0
220
-0
230
1
100
AcDbArc
50
90
51
180
0
LINE
5
138
100
AcDbEntity
8
0
100
AcDbLine
10
0.24999999999999997
20
0.49999999999999994
30
0
11
0.49999999999999994
21
0.49999999999999994
31
0
0
ARC
5
139
100
AcDbEntity
8
0
100
AcDbCircle
10
0.49999999999999978
20
1.0000000000000002
30
0
40
0.50000000000000033
210
0
220
0
230
1
100
AcDbArc
50
-90
51
0
0
LINE
5
140
100
AcDbEntity
8
0
100
AcDbLine
10
0.99999999999999989
20
1.0000000000000002
30
0
11
0.99999999999999989
21
3.25
31
0
0
ARC
5
141
100
AcDbEntity
8
0
100
AcDbCircle
10
0.75
20
3.2500000000000009
30
0
40
0.24999999999999989
210
0
220
0
230
1
100
AcDbArc
50
0
51
90.0000017209926
0
ARC
5
142
100
AcDbEntity
8
0
100
AcDbCircle
10
0.74999999249075244
20
3.2500000000000013
30
0
40
0.2499999999999992
210
0
220
-0
230
1
100
AcDbArc
50
89.999999999999815
51
180
0
LINE
5
143
100
AcDbEntity
8
0
100
AcDbLine
10
0.49999999249075339
20
3.2500000000000009
30
0
11
0.49999999249075339
21
2.176776695296637
31
0
0
ARC
5
144
100
AcDbEntity
8
0
100
AcDbCircle
10
0.4116116448424349
20
2.0883883476483187
30
0
40
0.12500000000000022
210
0
220
0
230
1
100
AcDbArc
50
-134.9999999999998
51
44.999999999999922
0
LINE
5
145
100
AcDbEntity
8
0
100
AcDbLine
10
0.32322329719411663
20
1.9999999999999998
30
0
11
0.17677669529663687
21
1.9999999999999998
31
0
0
ARC
5
146
100
AcDbEntity
8
0
100
AcDbCircle
10
0.088388347648318502
20
2.0883883476483183
30
0
40
0.12500000000000017
210
0
220
0
230
1
100
AcDbArc
50
135.00000000000011
51
314.99999999999994
0
LINE
5
147
100
AcDbEntity
8
0
100
AcDbLine
10
-4.3709567898628207e-17
20
2.1767766952966365
30
0
11
0
21
9.25
31
0
0
ARC
5
148
100
AcDbEntity
8
0
100
AcDbCircle
10
0.24999999999999997
20
9.25
30
0
40
0.25000000000000061
210
0
220
-0
230
1
100
AcDbArc
50
90
51
180
0
LINE
5
149
100
AcDbEntity
8
0
100
AcDbLine
10
0.25
20
9.5
30
0
11
0.49999999999999994
21
9.5
31
0
0
ARC
5
150
100
AcDbEntity
8
0
100
AcDbCircle
10
0.50000000000000167
20
9.9999999999999964
30
0
40
0.499999999999997
210
0
220
0
230
1
100
AcDbArc
50
-90.000000000000199
51
0
0
LINE
5
151
100
AcDbEntity
8
0
100
AcDbLine
10
0.99999999999999989
20
9.9999999999999982
30
0
11
0.99999999999999989
21
12.25
31
0
0
ARC
5
152
100
AcDbEntity
8
0
100
AcDbCircle
10
0.74999999999999878
20
12.25
30
0
40
0.25000000000000111
210
0
220
0
230
1
100
AcDbArc
50
0
51
89.999999999999716
0
ARC
5
153
100
AcDbEntity
8
0
100
AcDbCircle
10
0.74999999249075244
20
12.25
30
0
40
0.25000000000000072
210
0
220
-0
230
1
100
AcDbArc
50
89.999998279007229
51
180
0
LINE
5
154
100
AcDbEntity
8
0
100
AcDbLine
10
0.499999992490753
20
12.25
30
0
11
0.49999999246686477
21
11.176776666116407
31
0
0
ENDSEC
0
SECTION
2
OBJECTS
0
DICTIONARY
5
C
100
AcDbDictionary
3
ACAD_GROUP
350
D
3
ACAD_MLINESTYLE
350
17
0
DICTIONARY
5
D
100
AcDbDictionary
0
DICTIONARY
5
1A
330
C
100
AcDbDictionary
0
DICTIONARY
5
17
100
AcDbDictionary
0
ENDSEC
0
EOF
