0
SECTION
2
HEADER
9
$INSUNITS
70
1
9
$ACADVER
1
AC1014
9
$HANDSEED
5
FFFF
0
ENDSEC
0
SECTION
2
TABLES
0
TABLE
2
VPORT
5
8
100
AcDbSymbolTable
0
ENDTAB
0
TABLE
2
LTYPE
5
5
100
AcDbSymbolTable
0
LTYPE
5
14
100
AcDbSymbolTableRecord
100
AcDbLinetypeTableRecord
2
BYBLOCK
70
0
0
LTYPE
5
15
100
AcDbSymbolTableRecord
100
AcDbLinetypeTableRecord
2
BYLAYER
70
0
0
ENDTAB
0
TABLE
2
LAYER
5
2
100
AcDbSymbolTable
70
2
0
LAYER
5
50
100
AcDbSymbolTableRecord
100
AcDbLayerTableRecord
2
0
70
0
6
CONTINUOUS
0
ENDTAB
0
TABLE
2
STYLE
5
3
100
AcDbSymbolTable
70
1
0
STYLE
5
11
100
AcDbSymbolTableRecord
100
AcDbTextStyleTableRecord
2
STANDARD
70
0
0
ENDTAB
0
TABLE
2
VIEW
5
6
100
AcDbSymbolTable
70
0
0
ENDTAB
0
TABLE
2
UCS
5
7
100
AcDbSymbolTable
70
0
0
ENDTAB
0
TABLE
2
APPID
5
9
100
AcDbSymbolTable
70
2
0
APPID
5
12
100
AcDbSymbolTableRecord
100
AcDbRegAppTableRecord
2
ACAD
70
0
0
ENDTAB
0
TABLE
2
DIMSTYLE
5
A
100
AcDbSymbolTable
70
1
0
ENDTAB
0
TABLE
2
BLOCK_RECORD
5
1
100
AcDbSymbolTable
70
1
0
BLOCK_RECORD
5
1F
100
AcDbSymbolTableRecord
100
AcDbBlockTableRecord
2
*MODEL_SPACE
0
BLOCK_RECORD
5
1B
100
AcDbSymbolTableRecord
100
AcDbBlockTableRecord
2
*PAPER_SPACE
0
ENDTAB
0
ENDSEC
0
SECTION
2
BLOCKS
0
BLOCK
5
20
100
AcDbEntity
100
AcDbBlockBegin
2
*MODEL_SPACE
0
ENDBLK
5
21
100
AcDbEntity
100
AcDbBlockEnd
0
BLOCK
5
1C
100
AcDbEntity
100
AcDbBlockBegin
2
*PAPER_SPACE
0
ENDBLK
5
1D
100
AcDbEntity
100
AcDbBlockEnd
0
ENDSEC
0
SECTION
2
ENTITIES
0
ARC
5
100
100
AcDbEntity
8
0
100
AcDbCircle
10
-24.4116116682812
20
10.588388183355917
30
0
40
0.12500000000000072
210
0
220
0
230
1
100
AcDbArc
50
134.99998967404431
51
315.00003099174813
0
LINE
5
101
100
AcDbEntity
8
0
100
AcDbLine
10
-24.5
20
10.676776546933754
30
0
11
-24.5
21
11.749999819778081
31
0
0
ARC
5
102
100
AcDbEntity
8
0
100
AcDbCircle
10
-24.749999999999996
20
11.749999819778083
30
0
40
0.24999999999999639
210
0
220
0
230
1
100
AcDbArc
50
0
51
180
0
LINE
5
103
100
AcDbEntity
8
0
100
AcDbLine
10
-24.999999999999996
20
11.749999819778083
30
0
11
-24.999999999999996
21
9.25
31
0
0
ARC
5
104
100
AcDbEntity
8
0
100
AcDbCircle
10
-24.75
20
9.25
30
0
40
0.24999999999999639
210
0
220
0
230
1
100
AcDbArc
50
180
51
270
0
LINE
5
105
100
AcDbEntity
8
0
100
AcDbLine
10
-24.75
20
9
30
0
11
-24.249999999999996
21
8.9999999999999982
31
0
0
ARC
5
106
100
AcDbEntity
8
0
100
AcDbCircle
10
-24.249999999999996
20
8.7499999999999964
30
0
40
0.2499999999999992
210
0
220
-0
230
1
100
AcDbArc
50
0
51
90
0
LINE
5
107
100
AcDbEntity
8
0
100
AcDbLine
10
-24
20
8.7499999999999964
30
0
11
-24
21
1.6767766952966359
31
0
0
ARC
5
108
100
AcDbEntity
8
0
100
AcDbCircle
10
-24.088388347648316
20
1.5883883476483176
30
0
40
0.12499999999999971
210
0
220
0
230
1
100
AcDbArc
50
-135.00000000000051
51
45.00000000000086
0
LINE
5
109
100
AcDbEntity
8
0
100
AcDbLine
10
-24.176776695296635
20
1.5
30
0
11
-24.323222936750277
21
1.5
31
0
0
ARC
5
110
100
AcDbEntity
8
0
100
AcDbCircle
10
-24.411611284398596
20
1.5883883476483176
30
0
40
0.12500000000000042
210
0
220
0
230
1
100
AcDbArc
50
135.00000000000023
51
315.00000000000051
0
LINE
5
111
100
AcDbEntity
8
0
100
AcDbLine
10
-24.499999632046915
20
1.6767766952966361
30
0
11
-24.499999632046915
21
2.75
31
0
0
ARC
5
112
100
AcDbEntity
8
0
100
AcDbCircle
10
-24.749999632046908
20
2.7499999999999991
30
0
40
0.24999999999999359
210
0
220
-0
230
1
100
AcDbArc
50
0
51
90.000084328636916
0
ARC
5
113
100
AcDbEntity
8
0
100
AcDbCircle
10
-24.75
20
2.7500000000000031
30
0
40
0.24999999999972469
210
0
220
-0
230
1
100
AcDbArc
50
90
51
180
0
LINE
5
114
100
AcDbEntity
8
0
100
AcDbLine
10
-24.999999999999996
20
2.75
30
0
11
-24.999999999999996
21
0.24999999999999989
31
0
0
ARC
5
115
100
AcDbEntity
8
0
100
AcDbCircle
10
-24.750000000000004
20
0.24999999999999814
30
0
40
0.24999999999999359
210
0
220
0
230
1
100
AcDbArc
50
180
51
270.0000000000008
0
LINE
5
116
100
AcDbEntity
8
0
100
AcDbLine
10
-24.75
20
1.7483827159451283e-15
30
0
11
0.74999998498151033
21
0
31
0
0
ARC
5
117
100
AcDbEntity
8
0
100
AcDbCircle
10
0.749999984981506
20
0.24999999999999997
30
0
40
0.24999999999999997
210
0
220
0
230
1
100
AcDbArc
50
-89.999999999998991
51
0
0
LINE
5
118
100
AcDbEntity
8
0
100
AcDbLine
10
0.99999998498150588
20
0.24999999999999997
30
0
11
0.99999998498150677
21
2.75
31
0
0
ARC
5
119
100
AcDbEntity
8
0
100
AcDbCircle
10
0.749999984981507
20
2.7500000000000004
30
0
40
0.24999999999999972
210
0
220
0
230
1
100
AcDbArc
50
0
51
90.000000000000057
0
ARC
5
120
100
AcDbEntity
8
0
100
AcDbCircle
10
0.74999999249075344
20
2.75
30
0
40
0.25000000000000039
210
0
220
0
230
1
100
AcDbArc
50
90.000001720992557
51
180
0
LINE
5
121
100
AcDbEntity
8
0
100
AcDbLine
10
0.49999999249075339
20
2.7500000000000004
30
0
11
0.49999999249075339
21
1.6767766952966372
31
0
0
ARC
5
122
100
AcDbEntity
8
0
100
AcDbCircle
10
0.4116116448424349
20
1.5883883476483189
30
0
40
0.12500000000000022
210
0
220
0
230
1
100
AcDbArc
50
-134.9999999999998
51
44.999999999999922
0
LINE
5
123
100
AcDbEntity
8
0
100
AcDbLine
10
0.32322329719411663
20
1.5
30
0
11
0.17677669529663687
21
1.5
31
0
0
ARC
5
124
100
AcDbEntity
8
0
100
AcDbCircle
10
0.088388347648318599
20
1.5883883476483187
30
0
40
0.12499999999999997
210
0
220
0
230
1
100
AcDbArc
50
135.00000000000011
51
314.99999999999983
0
LINE
5
125
100
AcDbEntity
8
0
100
AcDbLine
10
-2.1854783949314103e-17
20
1.676776695296637
30
0
11
0
21
8.7499999999999982
31
0
0
ARC
5
126
100
AcDbEntity
8
0
100
AcDbCircle
10
0.24999999999999997
20
8.7499999999999982
30
0
40
0.25000000000000061
210
0
220
-0
230
1
100
AcDbArc
50
90
51
180
0
LINE
5
127
100
AcDbEntity
8
0
100
AcDbLine
10
0.25
20
8.9999999999999982
30
0
11
0.74999999999999978
21
8.9999999999999982
31
0
0
ARC
5
128
100
AcDbEntity
8
0
100
AcDbCircle
10
0.74999999999999867
20
9.2500000000000018
30
0
40
0.250000000000002
210
0
220
0
230
1
100
AcDbArc
50
-89.999999999999744
51
0
0
LINE
5
129
100
AcDbEntity
8
0
100
AcDbLine
10
0.99999999999999922
20
9.2500000000000018
30
0
11
0.99999999999999978
21
11.749999999999996
31
0
0
ARC
5
130
100
AcDbEntity
8
0
100
AcDbCircle
10
0.74999999999999833
20
11.749999999999996
30
0
40
0.25000000000000144
210
0
220
-0
230
1
100
AcDbArc
50
0
51
89.999999999999645
0
ARC
5
131
100
AcDbEntity
8
0
100
AcDbCircle
10
0.75000001595714783
20
11.749999999999996
30
0
40
0.25000000000000111
210
0
220
0
230
1
100
AcDbArc
50
90.00000365710892
51
180
0
LINE
5
132
100
AcDbEntity
8
0
100
AcDbLine
10
0.50000001595714938
20
11.749999999999996
30
0
11
0.50000001595714894
21
10.676776695296637
31
0
0
ARC
5
133
100
AcDbEntity
8
0
100
AcDbCircle
10
0.41161166830883039
20
10.588388347648319
30
0
40
0.12500000000000086
210
0
220
0
230
1
100
AcDbArc
50
-134.99999999999901
51
44.999999999999623
0
LINE
5
134
100
AcDbEntity
8
0
100
AcDbLine
10
0.32322332066051257
20
10.499999999999998
30
0
11
0.17677669529663545
21
10.499999999999998
31
0
0
ARC
5
135
100
AcDbEntity
8
0
100
AcDbCircle
10
0.088388347648318516
20
10.588388347648319
30
0
40
0.12500000000000011
210
0
220
0
230
1
100
AcDbArc
50
134.99999999999966
51
314.99999999999869
0
LINE
5
136
100
AcDbEntity
8
0
100
AcDbLine
10
3.9338611108765388e-16
20
10.676776695296638
30
0
11
0
21
12
31
0
0
LINE
5
137
100
AcDbEntity
8
0
100
AcDbLine
10
0
20
12
30
0
11
-24
21
12
31
0
0
LINE
5
138
100
AcDbEntity
8
0
100
AcDbLine
10
-24
20
12
30
0
11
-24
21
10.6767766634376
31
0
0
ARC
5
139
100
AcDbEntity
8
0
100
AcDbCircle
10
-24.088388363577831
20
10.5883883317188
30
0
40
0.12500000000000214
210
0
220
0
230
1
100
AcDbArc
50
-134.999969022133
51
44.999989674046056
0
LINE
5
140
100
AcDbEntity
8
0
100
AcDbLine
10
-24.176776663437582
20
10.49999993628194
30
0
11
-24.323223272822926
21
10.49999988351758
31
0
0
ENDSEC
0
SECTION
2
OBJECTS
0
DICTIONARY
5
C
100
AcDbDictionary
3
ACAD_GROUP
350
D
3
ACAD_MLINESTYLE
350
17
0
DICTIONARY
5
D
100
AcDbDictionary
0
DICTIONARY
5
1A
330
C
100
AcDbDictionary
0
DICTIONARY
5
17
100
AcDbDictionary
0
ENDSEC
0
EOF
